{"title":"Lets.Dance.For.Comic.Relief.S05E03.PDTV.x264-W33D","uid":8218868,"size":859470635,"categoryP":"video","categoryS":"tv_shows","magnet":"?xt=urn:btih:8b183ba78cae43bc944e0135cfd666fad2130a9b&amp;dn=Lets.Dance.For.Comic.Relief.S05E03.PDTV.x264-W33D&amp;tr=udp%3A%2F%2Ftracker.openbittorrent.com%3A80&amp;tr=udp%3A%2F%2Fopen.demonii.com%3A1337&amp;tr=udp%3A%2F%2Ftracker.coppersurfer.tk%3A6969&amp;tr=udp%3A%2F%2Fexodus.desync.com%3A6969","seeders":1,"leechers":0,"uploader":"W33DandSHANE","files":1,"time":1362422273,"description":"Let's Dance for Comic/Sport Relief is a British television programme shown on BBC One, featuring celebrities performing famous dance routines to raise money for the charities Comic Relief and Sport Relief.[1] The programme is currently presented by Steve Jones and Alex Jones, who replaced previous host Claudia Winkleman in 2011. In the first series, Anton du Beke was a regular judge, appearing alongside two guest panellists, but in the second series onwards, three guest judges were on the panel each week.\n\n\nGeneral\nComplete name :Lets.Dance.For.Comic.Relief.S05E03.PDTV.x264-W33D.mp4\nFormat : MPEG-4\nFormat profile : Base Media\nCodec ID : isom\nFile size : 820 MiB\nDuration : 1h 21mn\nOverall bit rate mode : Variable\nOverall bit rate : 1 414 Kbps\nWriting application : Lavf52.64.2\n\nVideo\nID : 1\nFormat : AVC\nFormat/Info : Advanced Video Codec\nFormat profile : &lt;a class=&quot;__cf_email__&quot; href=&quot;/cdn-cgi/l/email-protection&quot; data-cfemail=&quot;91d9f8f6f9d1dda2bfa1&quot;&gt;[email&amp;#160;protected]&lt;/a&gt;&lt;script cf-hash='f9e31' type=&quot;text/javascript&quot;&gt;\n/* &lt;![CDATA[ */!function(){try{var t=&quot;currentScript&quot;in document?document.currentScript:function(){for(var t=document.getElementsByTagName(&quot;script&quot;),e=t.length;e--;)if(t[e].getAttribute(&quot;cf-hash&quot;))return t[e]}();if(t&amp;&amp;t.previousSibling){var e,r,n,i,c=t.previousSibling,a=c.getAttribute(&quot;data-cfemail&quot;);if(a){for(e=&quot;&quot;,r=parseInt(a.substr(0,2),16),n=2;a.length-n;n+=2)i=parseInt(a.substr(n,2),16)^r,e+=String.fromCharCode(i);e=document.createTextNode(e),c.parentNode.replaceChild(e,c)}}}catch(u){}}();/* ]]&gt; */&lt;/script&gt;\nFormat settings, CABAC : Yes\nFormat settings, ReFrames : 4 frames\nCodec ID : avc1\nCodec ID/Info : Advanced Video Coding\nDuration : 1h 21mn\nBit rate : 1 234 Kbps\nWidth : 688 pixels\nHeight : 384 pixels\nDisplay aspect ratio : 16:9\nFrame rate mode : Constant\nFrame rate : 25.000 fps\nColor space : YUV\nChroma subsampling : 4:2:0\nBit depth : 8 bits\nScan type : Progressive\nBits/(Pixel*Frame) : 0.187\nStream size : 715 MiB (87%)\n\nAudio\nID : 2\nFormat : AAC\nFormat/Info : Advanced Audio Codec\nFormat profile : LC\nCodec ID : 40\nDuration : 1h 21mn\nDuration_LastFrame : -21ms\nBit rate mode : Variable\nBit rate : 174 Kbps\nChannel(s) : 2 channels\nChannel positions : Front: L R\nSampling rate : 48.0 KHz\nCompression mode : Lossy\nDelay relative to video : 200ms\nStream size : 101 MiB (12%)\n\n\n\n","torrent":{"xt":"urn:btih:8b183ba78cae43bc944e0135cfd666fad2130a9b","amp;dn":"Lets.Dance.For.Comic.Relief.S05E03.PDTV.x264-W33D","amp;tr":["udp%3A%2F%2Ftracker.openbittorrent.com%3A80","udp%3A%2F%2Fopen.demonii.com%3A1337","udp%3A%2F%2Ftracker.coppersurfer.tk%3A6969","udp%3A%2F%2Fexodus.desync.com%3A6969"],"infoHash":"8b183ba78cae43bc944e0135cfd666fad2130a9b","infoHashBuffer":{"type":"Buffer","data":[139,24,59,167,140,174,67,188,148,78,1,53,207,214,102,250,210,19,10,155]},"announce":[],"urlList":[]}}